<svg width="30" height="29" viewBox="0 0 30 29" fill="none" xmlns="http://www.w3.org/2000/svg">
<path d="M27.375 0.4375H9.375C8.92745 0.4375 8.49822 0.61529 8.18176 0.931757C7.86529 1.24822 7.6875 1.67745 7.6875 2.125V7.1875H2.625C2.17745 7.1875 1.74822 7.36529 1.43176 7.68176C1.11529 7.99822 0.9375 8.42745 0.9375 8.875V26.875C0.9375 27.3226 1.11529 27.7518 1.43176 28.0682C1.74822 28.3847 2.17745 28.5625 2.625 28.5625H20.625C21.0726 28.5625 21.5018 28.3847 21.8182 28.0682C22.1347 27.7518 22.3125 27.3226 22.3125 26.875V21.8125H27.375C27.8226 21.8125 28.2518 21.6347 28.5682 21.3182C28.8847 21.0018 29.0625 20.5726 29.0625 20.125V2.125C29.0625 1.67745 28.8847 1.24822 28.5682 0.931757C28.2518 0.61529 27.8226 0.4375 27.375 0.4375ZM18.9375 25.1875H4.3125V10.5625H18.9375V25.1875ZM25.6875 18.4375H22.3125V8.875C22.3125 8.42745 22.1347 7.99822 21.8182 7.68176C21.5018 7.36529 21.0726 7.1875 20.625 7.1875H11.0625V3.8125H25.6875V18.4375Z" fill="white"/>
</svg>
