<svg width="103" height="104" viewBox="0 0 103 104" fill="none" xmlns="http://www.w3.org/2000/svg">
<path fill-rule="evenodd" clip-rule="evenodd" d="M51.5354 9.2793C27.943 9.2793 8.81885 28.4035 8.81885 51.9958C8.81885 75.5882 27.943 94.7124 51.5354 94.7124C75.1277 94.7124 94.2519 75.5882 94.2519 51.9958C94.2519 28.4035 75.1277 9.2793 51.5354 9.2793ZM51.5354 13.551C51.5354 23.7472 47.4849 33.5258 40.2751 40.7356C33.0653 47.9454 23.2867 51.9958 13.0905 51.9958C23.2867 51.9958 33.0653 56.0463 40.2751 63.2561C47.4849 70.4659 51.5354 80.2445 51.5354 90.4407C51.5354 80.2445 55.5858 70.4659 62.7956 63.2561C70.0054 56.0463 79.784 51.9958 89.9803 51.9958C79.784 51.9958 70.0054 47.9454 62.7956 40.7356C55.5858 33.5258 51.5354 23.7472 51.5354 13.551Z" fill="#D63641"/>
</svg>
