<svg width="103" height="104" viewBox="0 0 103 104" fill="none" xmlns="http://www.w3.org/2000/svg">
<path d="M51.5361 99.2199C45.1165 99.2194 38.8451 97.2903 33.535 93.6826C28.2249 90.075 24.1211 84.9553 21.7556 78.9874C19.3902 73.0194 18.8722 66.4785 20.2688 60.2126C21.6655 53.9467 24.9123 48.2449 29.5884 43.8465C35.3209 38.4514 49.4003 28.7377 47.2645 7.37939C72.8944 24.466 85.7094 41.5526 60.0794 67.1825C64.3511 67.1825 70.7586 67.1825 81.4377 56.6316C82.5911 59.9335 83.5735 63.4833 83.5735 67.1825C83.5735 75.6794 80.1982 83.8282 74.19 89.8364C68.1818 95.8446 60.033 99.2199 51.5361 99.2199Z" fill="#D63641"/>
</svg>
