<svg width="101" height="101" viewBox="0 0 101 101" fill="none" xmlns="http://www.w3.org/2000/svg">
<g clip-path="url(#clip0_49_6511)">
<path d="M44.5143 18.3528C47.3073 26.7317 44.4557 35.1887 38.1472 37.2591C31.8386 39.3294 24.4557 34.2122 21.6628 25.8333C18.8698 17.4544 21.7214 8.99733 28.03 6.92702C34.3386 4.85671 41.7214 9.97389 44.5143 18.3528ZM19.8854 38.9973C23.5768 45.3255 22.6784 52.6887 17.8932 55.4231C13.1081 58.1575 6.23309 55.2473 2.56121 48.9192C-1.11066 42.5911 -0.251286 35.2278 4.53387 32.4934C9.31903 29.7591 16.194 32.6692 19.8659 38.9973H19.8854ZM13.7917 78.5676C24.0261 50.97 42.2097 43.9583 50.2761 43.9583C58.3425 43.9583 76.5261 50.97 86.7604 78.5676C87.4636 80.4622 87.7761 82.4934 87.7761 84.5247V84.8372C87.7761 89.8762 83.694 93.9583 78.655 93.9583C76.4089 93.9583 74.1823 93.6848 72.0143 93.138L54.8268 88.8411C51.8386 88.0989 48.7136 88.0989 45.7253 88.8411L28.5378 93.138C26.3698 93.6848 24.1432 93.9583 21.8972 93.9583C16.8581 93.9583 12.7761 89.8762 12.7761 84.8372V84.5247C12.7761 82.4934 13.0886 80.4622 13.7917 78.5676ZM82.6589 55.4231C77.8737 52.6887 76.9753 45.3255 80.6667 38.9973C84.3581 32.6692 91.2136 29.7591 95.9987 32.4934C100.784 35.2278 101.682 42.5911 97.9909 48.9192C94.2995 55.2473 87.444 58.1575 82.6589 55.4231ZM60.8425 37.2591C54.5339 35.1887 51.6823 26.7317 54.4753 18.3528C57.2682 9.97389 64.6511 4.85671 70.9596 6.92702C77.2682 8.99733 80.1198 17.4544 77.3268 25.8333C74.5339 34.2122 67.1511 39.3294 60.8425 37.2591Z" fill="#D63641"/>
</g>
<defs>
<clipPath id="clip0_49_6511">
<rect width="100" height="100" fill="white" transform="translate(0.275879 0.208496)"/>
</clipPath>
</defs>
</svg>
