<svg width="103" height="104" viewBox="0 0 103 104" fill="none" xmlns="http://www.w3.org/2000/svg">
<path d="M41.6345 55.0981C39.1398 57.594 36.0063 59.3551 32.5772 60.1883C29.1481 61.0215 25.5559 60.8946 22.1941 59.8217C18.8323 58.7487 15.8307 56.7711 13.5183 54.1054C11.206 51.4398 9.67196 48.1891 9.08447 44.7095H46.9954C46.3358 48.6468 44.4613 52.2792 41.6345 55.0981ZM46.9954 38.302H9.08874C9.84354 33.8205 12.1617 29.7514 15.6319 26.8168C19.102 23.8823 23.4996 22.2721 28.0442 22.2721C32.5888 22.2721 36.9864 23.8823 40.4566 26.8168C43.9267 29.7514 46.2406 33.8205 46.9954 38.302ZM63.3131 31.3435C64.495 32.5677 65.9088 33.5443 67.4721 34.2163C69.0354 34.8883 70.7169 35.2422 72.4185 35.2574C74.12 35.2725 75.8076 34.9487 77.3826 34.3047C78.9577 33.6608 80.3887 32.7095 81.5923 31.5066C82.7958 30.3036 83.7477 28.8731 84.3924 27.2983C85.0371 25.7235 85.3617 24.0362 85.3473 22.3346C85.333 20.633 84.9798 18.9514 84.3086 17.3877C83.6374 15.8241 82.6614 14.4098 81.4377 13.2274C79.0281 10.8561 75.7792 9.53312 72.3985 9.54649C69.0179 9.55985 65.7795 10.9085 63.3887 13.2987C60.998 15.6889 59.6485 18.927 59.6343 22.3077C59.6202 25.6883 60.9424 28.9376 63.3131 31.3477M89.5752 52.5907C92.5693 55.5851 94.2513 59.6462 94.2513 63.8806C94.2513 68.1151 92.5693 72.1762 89.5752 75.1706L85.1882 79.5576V79.5448L82.0614 78.9468C80.9539 78.6387 79.8761 78.2327 78.8406 77.7336C76.7047 76.6999 73.7146 74.8631 70.5108 71.6593C67.3071 68.4556 65.466 65.4612 64.4366 63.3253C64.0439 62.5193 63.707 61.6872 63.4284 60.835C63.3512 60.5955 63.2828 60.3533 63.2234 60.1088L62.6211 56.9777H62.6083L66.9953 52.5907C69.9897 49.5966 74.0508 47.9146 78.2852 47.9146C82.5197 47.9146 86.5808 49.5966 89.5752 52.5907ZM57.2004 62.3856C57.2388 62.5094 57.2773 62.6419 57.3285 62.7871C57.5848 63.6115 58.012 64.7478 58.6656 66.1062C59.9769 68.8272 62.2196 72.4282 65.9786 76.1873C69.7377 79.9463 73.3387 82.1889 76.0597 83.5003C77.2602 84.0842 78.5041 84.574 79.7803 84.9655L74.5219 90.2239C71.5163 93.1631 67.4728 94.7984 63.2689 94.7749C59.0651 94.7514 55.0401 93.071 52.0675 90.0984C49.0949 87.1258 47.4145 83.1008 47.391 78.897C47.3675 74.6931 49.0028 70.6496 51.942 67.644L57.2004 62.3856Z" fill="#D63641"/>
</svg>
