<svg width="50" height="51" viewBox="0 0 50 51" fill="none" xmlns="http://www.w3.org/2000/svg">
<circle cx="25" cy="25.5" r="25" fill="#05A3C9"/>
<g clip-path="url(#clip0_101_6367)">
<path fill-rule="evenodd" clip-rule="evenodd" d="M22.6421 36.1303C21.2344 35.3864 20.0828 34.7568 20.083 34.7312C20.0836 34.6651 23.4615 32.9296 23.5814 32.9338C23.6359 32.9357 24.0316 33.1204 24.4605 33.3444L25.2406 33.7514L26.0925 33.3071L26.9444 32.8628L28.3395 33.4988C30.4417 34.4572 30.66 34.5622 30.6258 34.5975C30.5804 34.6443 29.8264 35.0552 27.7807 36.1478C26.7921 36.6759 25.8325 37.1937 25.6483 37.2985C25.4641 37.4032 25.2883 37.4875 25.2575 37.4859C25.2268 37.4842 24.0499 36.8742 22.6421 36.1303ZM16.468 32.8867L15.0026 32.1188V28.7485C15.0026 26.8948 15.0219 25.3782 15.0455 25.3782C15.069 25.3782 15.79 25.6953 16.6476 26.0828L18.2069 26.7875V30.3399L18.9689 29.9188C19.5561 29.5945 20.1437 29.2709 20.7315 28.948L21.7321 28.3983L22.1774 28.6026C22.4566 28.7309 22.7353 28.8605 23.0134 28.9913C23.2283 29.0928 23.7558 29.3339 24.1857 29.5271C24.6155 29.7203 25.0134 29.9147 25.0698 29.959C25.1448 30.0178 24.2309 30.5302 21.6895 31.8542C19.7739 32.8522 18.1451 33.6656 18.07 33.6617C17.9949 33.6578 17.274 33.3091 16.468 32.8867ZM30.8899 32.671C29.8919 32.2139 29.0746 31.8217 29.0737 31.7993C29.0728 31.777 29.6168 31.4488 30.2826 31.0702C30.9483 30.6916 31.493 30.3615 31.493 30.3366C31.493 30.3118 30.9039 30.0222 30.184 29.693C29.4639 29.3638 27.644 28.5299 26.1395 27.84L21.0986 25.5283C19.8306 24.9467 18.6876 24.4225 18.5586 24.3633C15.9686 23.1738 15.2567 22.8437 15.159 22.787C15.0606 22.73 15.0384 22.3986 15.0209 20.7353L15 18.7515L16.3104 18.0741L17.6208 17.3968L19.4379 18.2287C20.4373 18.6863 21.2549 19.0846 21.2549 19.1139C21.2549 19.1432 21.0702 19.2653 20.8446 19.3853C20.6189 19.5054 20.1529 19.7712 19.8091 19.9761C19.4652 20.181 19.1224 20.369 19.0471 20.3939C18.9718 20.4188 18.9114 20.4623 18.9126 20.4907C18.9138 20.5189 19.714 20.9045 20.6906 21.3476C22.5874 22.208 24.0391 22.8712 27.1555 24.301C28.5491 24.9402 29.9428 25.579 31.3367 26.2175C32.5618 26.7784 33.9861 27.4336 34.5019 27.6734L35.4398 28.1094L35.4606 30.1158L35.4816 32.1221L34.1525 32.8142C33.4215 33.1948 32.7966 33.5053 32.7638 33.5042C32.7311 33.5031 31.8878 33.1282 30.8899 32.671ZM35.0837 25.4328C34.8878 25.3357 34.501 25.154 34.224 25.029C33.947 24.904 33.4215 24.6634 33.0561 24.4942L32.3918 24.1868L32.3766 22.4254C32.3682 21.4567 32.3331 20.6683 32.2985 20.6735C32.2198 20.6853 30.9748 21.3331 29.7232 22.0135C28.8199 22.5045 28.7632 22.524 28.5509 22.4174C28.4282 22.3557 27.6948 22.022 26.921 21.6756C26.1473 21.3294 25.489 21.0234 25.4581 20.9957C25.4272 20.9681 26.9844 20.1118 28.9186 19.0928L32.4353 17.2401L33.9376 18.0285C34.7637 18.4621 35.4663 18.8576 35.4986 18.9073C35.5714 19.0192 35.5652 25.6246 35.4923 25.6157C35.4634 25.6121 35.2795 25.5298 35.0837 25.4328ZM26.7647 17.6797C26.5042 17.566 26.2436 17.4522 25.9832 17.3382C25.1967 16.993 25.3509 16.9816 24.4152 17.4541C23.792 17.7689 23.5234 17.866 23.4068 17.8188C23.3193 17.7835 22.5666 17.4399 21.734 17.0554C20.9014 16.6708 20.1913 16.3562 20.156 16.3562C19.8067 16.3562 20.3874 16.0042 22.6284 14.8573L25.2565 13.5125L26.3623 14.0663C26.9705 14.371 28.1972 14.981 29.0884 15.4219C29.9795 15.8629 30.6976 16.2352 30.6841 16.2492C30.6706 16.2632 29.9239 16.6522 29.0248 17.1137L27.39 17.9525L26.7647 17.6797Z" fill="white"/>
</g>
<defs>
<clipPath id="clip0_101_6367">
<rect width="20.5714" height="24" fill="white" transform="matrix(1 0 0 -1 15 37.5)"/>
</clipPath>
</defs>
</svg>
