<svg width="430" height="192" viewBox="0 0 430 192" fill="none" xmlns="http://www.w3.org/2000/svg">
<path fill-rule="evenodd" clip-rule="evenodd" d="M429.65 50.9236V141.077C429.65 168.687 333.58 191.07 215.071 191.07C96.5629 191.07 0.49292 168.687 0.49292 141.077V50.9236C0.49292 23.313 96.5629 0.930176 215.071 0.930176C333.58 0.930176 429.65 23.313 429.65 50.9236Z" fill="#E8E8E8"/>
<path fill-rule="evenodd" clip-rule="evenodd" d="M87.3359 10.7492C34.6421 19.8587 0.49292 34.462 0.49292 50.9236C0.49292 78.5342 96.5629 100.917 215.071 100.917C250.059 100.917 283.092 98.966 312.273 95.5055L87.3359 10.7492ZM365.407 86.596C405.057 77.5247 429.65 64.8933 429.65 50.9236C429.65 23.313 333.58 0.930176 215.071 0.930176C190.624 0.930176 167.131 1.88272 145.24 3.63719L365.407 86.596Z" fill="white"/>
</svg>
